<?xml version="1.0" encoding="UTF-8" standalone="no"?><!-- Generator: Gravit.io --><svg xmlns="http://www.w3.org/2000/svg" xmlns:xlink="http://www.w3.org/1999/xlink" style="isolation:isolate" viewBox="0 0 1175 268" width="1175pt" height="268pt"><defs><clipPath id="_clipPath_e7t7kkHeuW17xoar4aJ21On6kFspXCcA"><rect width="1175" height="268"/></clipPath></defs><g clip-path="url(#_clipPath_e7t7kkHeuW17xoar4aJ21On6kFspXCcA)"><line x1="36" y1="116.5" x2="704" y2="116.5" vector-effect="non-scaling-stroke" stroke-width="2" stroke="rgb(221,95,70)" stroke-linejoin="miter" stroke-linecap="square" stroke-miterlimit="3"/><line x1="725" y1="54.5" x2="725" y2="187.5" vector-effect="non-scaling-stroke" stroke-width="1" stroke="rgb(0,0,0)" stroke-linejoin="miter" stroke-linecap="square" stroke-miterlimit="3"/><line x1="882" y1="54.5" x2="882" y2="187.453" vector-effect="non-scaling-stroke" stroke-width="1" stroke="rgb(0,0,0)" stroke-linejoin="miter" stroke-linecap="square" stroke-miterlimit="3"/><line x1="953" y1="67.125" x2="953" y2="226.136" vector-effect="non-scaling-stroke" stroke-width="1" stroke="rgb(0,0,0)" stroke-linejoin="miter" stroke-linecap="square" stroke-miterlimit="3"/><line x1="36" y1="151.5" x2="702" y2="151.5" vector-effect="non-scaling-stroke" stroke-width="1" stroke="rgb(0,0,0)" stroke-linejoin="miter" stroke-linecap="square" stroke-miterlimit="3"/><line x1="904" y1="54.5" x2="904" y2="172.5" vector-effect="non-scaling-stroke" stroke-width="2" stroke="rgb(0,0,0)" stroke-linejoin="miter" stroke-linecap="square" stroke-miterlimit="3"/><rect x="909" y="57.5" width="9" height="27" transform="matrix(1,0,0,1,0,0)" fill="rgb(190,81,57)" vector-effect="non-scaling-stroke" stroke-width="1" stroke="rgb(143,60,44)" stroke-linejoin="miter" stroke-linecap="square" stroke-miterlimit="2"/><rect x="909" y="89.5" width="9" height="13" transform="matrix(1,0,0,1,0,0)" fill="rgb(190,81,57)" vector-effect="non-scaling-stroke" stroke-width="1" stroke="rgb(156,82,68)" stroke-linejoin="miter" stroke-linecap="square" stroke-miterlimit="2"/><rect x="909" y="107.5" width="9" height="14" transform="matrix(1,0,0,1,0,0)" fill="rgb(190,81,57)" vector-effect="non-scaling-stroke" stroke-width="1" stroke="rgb(156,82,68)" stroke-linejoin="miter" stroke-linecap="square" stroke-miterlimit="2"/><rect x="909" y="126.5" width="9" height="19" transform="matrix(1,0,0,1,0,0)" fill="rgb(190,81,57)" vector-effect="non-scaling-stroke" stroke-width="1" stroke="rgb(156,82,68)" stroke-linejoin="miter" stroke-linecap="square" stroke-miterlimit="2"/><rect x="909" y="150.5" width="9" height="19" transform="matrix(1,0,0,1,0,0)" fill="rgb(190,81,57)" vector-effect="non-scaling-stroke" stroke-width="1" stroke="rgb(156,82,68)" stroke-linejoin="miter" stroke-linecap="square" stroke-miterlimit="2"/><path d=" M 922 60 C 933.333 60 929.968 67.612 932.974 79.5 C 935.211 88.348 936.667 95.5 948 95.5" fill="none" vector-effect="non-scaling-stroke" stroke-width="1" stroke="rgb(0,0,0)" stroke-linejoin="miter" stroke-linecap="square" stroke-miterlimit="3"/><g clip-path="url(#_clipPath_GGPYVo6Zi04qLA4XfM7KMayukekoBJKQ)"><text transform="matrix(1,0,0,1,6.833,61.252)" style="font-family:'Open Sans';font-weight:700;font-size:20px;font-style:italic;fill:#000000;stroke:none;">How to read:</text></g><defs><clipPath id="_clipPath_GGPYVo6Zi04qLA4XfM7KMayukekoBJKQ"><rect x="0" y="0" width="131" height="31.125" transform="matrix(1,0,0,1,6.833,39.875)"/></clipPath></defs><g clip-path="url(#_clipPath_HGaoDLon6R5aK7Rfbxk2Y67t57uOdAzR)"><text transform="matrix(1,0,0,1,748.695,21.127)" style="font-family:'Open Sans';font-weight:400;font-size:20px;font-style:italic;fill:#848484;stroke:none;">publication </text><text transform="matrix(1,0,0,1,782.436,38.286)" style="font-family:'Open Sans';font-weight:400;font-size:20px;font-style:italic;fill:#848484;stroke:none;">type</text></g><defs><clipPath id="_clipPath_HGaoDLon6R5aK7Rfbxk2Y67t57uOdAzR"><rect x="0" y="0" width="157" height="46.25" transform="matrix(1,0,0,1,723.5,-0.25)"/></clipPath></defs><g clip-path="url(#_clipPath_kfNixFl22xRzWDoZsbwrIhvJBOOqWwMz)"><text transform="matrix(1,0,0,1,734.067,72.655)" style="font-family:'Open Sans';font-weight:400;font-size:15px;font-style:normal;font-variant-ligatures:none;letter-spacing:2;fill:#000000;stroke:none;">SYSTEM DESIGN</text><text transform="matrix(1,0,0,1,744.025,94.921)" style="font-family:'Open Sans';font-weight:400;font-size:15px;font-style:normal;font-variant-ligatures:none;letter-spacing:2;fill:#000000;stroke:none;">TECHNOLOGY</text><text transform="matrix(1,0,0,1,760.45,117.186)" style="font-family:'Open Sans';font-weight:400;font-size:15px;font-style:normal;font-variant-ligatures:none;letter-spacing:2;fill:#000000;stroke:none;">METHODS</text><text transform="matrix(1,0,0,1,749.774,139.452)" style="font-family:'Open Sans';font-weight:400;font-size:15px;font-style:normal;font-variant-ligatures:none;letter-spacing:2;fill:#000000;stroke:none;">USER STUDY</text><text transform="matrix(1,0,0,1,757.077,161.718)" style="font-family:'Open Sans';font-weight:400;font-size:15px;font-style:normal;font-variant-ligatures:none;letter-spacing:2;fill:#000000;stroke:none;">PLATFORM</text><text transform="matrix(1,0,0,1,770.452,183.983)" style="font-family:'Open Sans';font-weight:400;font-size:15px;font-style:normal;font-variant-ligatures:none;letter-spacing:2;fill:#000000;stroke:none;">SURVEY</text></g><defs><clipPath id="_clipPath_kfNixFl22xRzWDoZsbwrIhvJBOOqWwMz"><rect x="0" y="0" width="157" height="151" transform="matrix(1,0,0,1,725,47)"/></clipPath></defs><g clip-path="url(#_clipPath_e0JYkM9BgZCCM48RxdccNjke2NEuvCfR)"><text transform="matrix(1,0,0,1,419.499,195.946)" style="font-family:'Open Sans';font-weight:400;font-size:21px;font-style:italic;fill:#848484;stroke:none;">citation</text><text transform="matrix(1,0,0,1,425.108,213.391)" style="font-family:'Open Sans';font-weight:400;font-size:21px;font-style:italic;fill:#848484;stroke:none;">impact</text></g><defs><clipPath id="_clipPath_e0JYkM9BgZCCM48RxdccNjke2NEuvCfR"><rect x="0" y="0" width="99" height="47.296" transform="matrix(1,0,0,1,392,173.5)"/></clipPath></defs><g clip-path="url(#_clipPath_JoeEwOJgHNZkZCAau5Fulj2ZxBhgK2an)"><text transform="matrix(1,0,0,1,953,25.127)" style="font-family:'Open Sans';font-weight:400;font-size:20px;font-style:italic;fill:#848484;stroke:none;">application</text><text transform="matrix(1,0,0,1,953,43.103)" style="font-family:'Open Sans';font-weight:400;font-size:20px;font-style:italic;fill:#848484;stroke:none;">area</text></g><defs><clipPath id="_clipPath_JoeEwOJgHNZkZCAau5Fulj2ZxBhgK2an"><rect x="0" y="0" width="157" height="44" transform="matrix(1,0,0,1,953,3.75)"/></clipPath></defs><g clip-path="url(#_clipPath_xvSJO2TJW5VVLA2Y0697dSbz4gDRfX2H)"><text transform="matrix(1,0,0,1,959,92.245)" style="font-family:'Open Sans';font-weight:400;font-size:15px;font-style:italic;font-variant-ligatures:none;letter-spacing:2;fill:#000000;stroke:none;">Teleoperation</text><text transform="matrix(1,0,0,1,959,117.574)" style="font-family:'Open Sans';font-weight:400;font-size:15px;font-style:italic;font-variant-ligatures:none;letter-spacing:2;fill:#000000;stroke:none;">Healthcare</text><text transform="matrix(1,0,0,1,959,142.904)" style="font-family:'Open Sans';font-weight:400;font-size:15px;font-style:italic;font-variant-ligatures:none;letter-spacing:2;fill:#000000;stroke:none;">Immersive learning</text><text transform="matrix(1,0,0,1,959,168.234)" style="font-family:'Open Sans';font-weight:400;font-size:15px;font-style:italic;font-variant-ligatures:none;letter-spacing:2;fill:#000000;stroke:none;">Social Interaction</text><text transform="matrix(1,0,0,1,959,193.564)" style="font-family:'Open Sans';font-weight:400;font-size:15px;font-style:italic;font-variant-ligatures:none;letter-spacing:2;fill:#000000;stroke:none;">Collaborative Interaction</text><text transform="matrix(1,0,0,1,959,218.894)" style="font-family:'Open Sans';font-weight:400;font-size:15px;font-style:italic;font-variant-ligatures:none;letter-spacing:2;fill:#000000;stroke:none;">............</text></g><defs><clipPath id="_clipPath_xvSJO2TJW5VVLA2Y0697dSbz4gDRfX2H"><rect x="0" y="0" width="236.5" height="166.5" transform="matrix(1,0,0,1,959,66.5)"/></clipPath></defs><line x1="49" y1="84.5" x2="49" y2="150.5" vector-effect="non-scaling-stroke" stroke-width="1" stroke="rgb(174,174,174)" stroke-linejoin="miter" stroke-linecap="square" stroke-miterlimit="3"/><line x1="119" y1="84.5" x2="119" y2="150.5" vector-effect="non-scaling-stroke" stroke-width="1" stroke="rgb(174,174,174)" stroke-linejoin="miter" stroke-linecap="square" stroke-miterlimit="3"/><line x1="194" y1="84.5" x2="194" y2="150.5" vector-effect="non-scaling-stroke" stroke-width="1" stroke="rgb(174,174,174)" stroke-linejoin="miter" stroke-linecap="square" stroke-miterlimit="3"/><line x1="268" y1="84.5" x2="268" y2="150.5" vector-effect="non-scaling-stroke" stroke-width="1" stroke="rgb(174,174,174)" stroke-linejoin="miter" stroke-linecap="square" stroke-miterlimit="3"/><line x1="352" y1="84.5" x2="352" y2="150.5" vector-effect="non-scaling-stroke" stroke-width="1" stroke="rgb(174,174,174)" stroke-linejoin="miter" stroke-linecap="square" stroke-miterlimit="3"/><line x1="436" y1="84.5" x2="436" y2="150.5" vector-effect="non-scaling-stroke" stroke-width="1" stroke="rgb(174,174,174)" stroke-linejoin="miter" stroke-linecap="square" stroke-miterlimit="3"/><line x1="520" y1="84.5" x2="520" y2="150.5" vector-effect="non-scaling-stroke" stroke-width="1" stroke="rgb(174,174,174)" stroke-linejoin="miter" stroke-linecap="square" stroke-miterlimit="3"/><line x1="604" y1="84.5" x2="604" y2="150.5" vector-effect="non-scaling-stroke" stroke-width="1" stroke="rgb(174,174,174)" stroke-linejoin="miter" stroke-linecap="square" stroke-miterlimit="3"/><line x1="688" y1="84.5" x2="688" y2="150.5" vector-effect="non-scaling-stroke" stroke-width="1" stroke="rgb(174,174,174)" stroke-linejoin="miter" stroke-linecap="square" stroke-miterlimit="3"/><circle vector-effect="non-scaling-stroke" cx="482.39822507552844" cy="229.39822507552836" r="8.601774924471272" fill="rgb(143,60,44)"/><circle vector-effect="non-scaling-stroke" cx="261.6859998008026" cy="102.29645015105717" r="8.601774924471272" fill="rgb(143,60,44)"/><circle vector-effect="non-scaling-stroke" cx="435.9999999999997" cy="116.30088746223528" r="8.601774924471272" fill="rgb(179,76,56)"/><circle vector-effect="non-scaling-stroke" cx="599.110450350253" cy="99.09733761329272" r="8.601774924471329" fill="rgb(143,60,44)"/><circle vector-effect="non-scaling-stroke" cx="587.3982250755283" cy="117.89822507552813" r="8.601774924471329" fill="rgb(143,60,44)"/><circle vector-effect="non-scaling-stroke" cx="459.7122252747256" cy="229.39822507552836" r="8.601774924471272" fill="rgb(179,76,56)"/><circle vector-effect="non-scaling-stroke" cx="270.28777472527395" cy="117.89822507552815" r="8.601774924471272" fill="rgb(179,76,56)"/><circle vector-effect="non-scaling-stroke" cx="519.9999999999997" cy="117.89822507552815" r="8.6017749244713" fill="rgb(179,76,56)"/><circle vector-effect="non-scaling-stroke" cx="604.6017749244706" cy="137.3124999999998" r="8.601774924471329" fill="rgb(221,95,70)"/><circle vector-effect="non-scaling-stroke" cx="437.0262254739223" cy="229.39822507552836" r="8.601774924471272" fill="rgb(221,95,70)"/><circle vector-effect="non-scaling-stroke" cx="194.99999999999963" cy="117.89822507552815" r="8.601774924471272" fill="rgb(221,95,70)"/><circle vector-effect="non-scaling-stroke" cx="519.9999999999997" cy="99.09733761329284" r="8.6017749244713" fill="rgb(221,95,70)"/><circle vector-effect="non-scaling-stroke" cx="499.6017749244711" cy="119.49999999999974" r="8.601774924471272" fill="rgb(221,95,70)"/><circle vector-effect="non-scaling-stroke" cx="607.7122252747247" cy="117.89822507552815" r="8.601774924471329" fill="rgb(221,95,70)"/><circle vector-effect="non-scaling-stroke" cx="628.3982250755281" cy="117.89822507552813" r="8.601774924471329" fill="rgb(179,76,56)"/><g clip-path="url(#_clipPath_rHUHscnLfhObHFkghq67wUdwM5stbRnL)"><text transform="matrix(1,0,0,1,499.602,192.964)" style="font-family:'Open Sans';font-weight:400;font-size:14px;font-style:normal;fill:#000000;stroke:none;">color intensity indicates the </text><text transform="matrix(1,0,0,1,499.602,212.029)" style="font-family:'Open Sans';font-weight:400;font-size:14px;font-style:normal;fill:#000000;stroke:none;">citation impact of the paper, </text><text transform="matrix(1,0,0,1,499.602,231.095)" style="font-family:'Open Sans';font-weight:400;font-size:14px;font-style:normal;fill:#000000;stroke:none;">higher the  intensity, higher </text><text transform="matrix(1,0,0,1,499.602,250.16)" style="font-family:'Open Sans';font-weight:400;font-size:14px;font-style:normal;fill:#000000;stroke:none;">the citation impact.</text></g><defs><clipPath id="_clipPath_rHUHscnLfhObHFkghq67wUdwM5stbRnL"><rect x="0" y="0" width="205.677" height="83" transform="matrix(1,0,0,1,499.602,178)"/></clipPath></defs><path d=" M 21.417 108.5 L 21.417 84.93 L 21.417 84.93 L 21.417 108.5 Z  M 19.583 84.93 L 20.5 83.196 L 21.417 81.462 L 22.333 83.196 L 23.25 84.93 L 21.417 84.93 L 21.417 84.93 L 19.583 84.93 Z " fill-rule="evenodd" fill="none" vector-effect="non-scaling-stroke" stroke-width="1" stroke="rgb(0,0,0)" stroke-linejoin="miter" stroke-linecap="square" stroke-miterlimit="3"/><g clip-path="url(#_clipPath_cL9P90475qpEYqWuCCmmx7KD1Ini9QoS)"><text transform="matrix(1,0,0,1,551.553,25.033)" style="font-family:'Open Sans';font-weight:400;font-size:20px;font-style:italic;fill:#848484;stroke:none;">total number</text><text transform="matrix(1,0,0,1,592.325,41.375)" style="font-family:'Open Sans';font-weight:400;font-size:20px;font-style:italic;fill:#848484;stroke:none;">of paper</text></g><defs><clipPath id="_clipPath_cL9P90475qpEYqWuCCmmx7KD1Ini9QoS"><rect x="0" y="0" width="205.677" height="58.437" transform="matrix(1,0,0,1,463.491,3.656)"/></clipPath></defs><path d=" M 73.962 163.75 L 97.532 163.75 L 97.532 163.75 L 73.962 163.75 Z  M 97.532 161.917 L 99.266 162.833 L 101 163.75 L 99.266 164.667 L 97.532 165.583 L 97.532 163.75 L 97.532 163.75 L 97.532 161.917 Z " fill-rule="evenodd" fill="none" vector-effect="non-scaling-stroke" stroke-width="1" stroke="rgb(0,0,0)" stroke-linejoin="miter" stroke-linecap="square" stroke-miterlimit="3"/><g clip-path="url(#_clipPath_8kxO9EyqXpOC00L7QglM3SfdATWqyllB)"><text transform="matrix(1,0,0,1,49,192.964)" style="font-family:'Open Sans';font-weight:400;font-size:14px;font-style:normal;fill:#000000;stroke:none;">each node represents a publication, </text><text transform="matrix(1,0,0,1,49,212.029)" style="font-family:'Open Sans';font-weight:400;font-size:14px;font-style:normal;fill:#000000;stroke:none;">each publication positioned according </text><text transform="matrix(1,0,0,1,49,231.095)" style="font-family:'Open Sans';font-weight:400;font-size:14px;font-style:normal;fill:#000000;stroke:none;">to the date it was publised (x axis) and </text><text transform="matrix(1,0,0,1,49,250.16)" style="font-family:'Open Sans';font-weight:400;font-size:14px;font-style:normal;fill:#000000;stroke:none;">venue it was published (y axis).</text></g><defs><clipPath id="_clipPath_8kxO9EyqXpOC00L7QglM3SfdATWqyllB"><rect x="0" y="0" width="262" height="83" transform="matrix(1,0,0,1,49,178)"/></clipPath></defs><g clip-path="url(#_clipPath_0wLVjSald4lXpnOZ40eDT3i79bWoGbl9)"><text transform="matrix(0,-1,1,0,25.66,150.451)" style="font-family:'Open Sans';font-weight:400;font-size:12px;font-style:normal;fill:#000000;stroke:none;">y -axis</text></g><defs><clipPath id="_clipPath_0wLVjSald4lXpnOZ40eDT3i79bWoGbl9"><rect x="0" y="0" width="37.951" height="17.167" transform="matrix(0,-1,1,0,12.833,150.451)"/></clipPath></defs><g clip-path="url(#_clipPath_OdgdpUjzuNJpcLmqXsdt41AFEEazLCEl)"><text transform="matrix(1,0,0,1,34.428,167.826)" style="font-family:'Open Sans';font-weight:400;font-size:12px;font-style:normal;fill:#000000;stroke:none;">x -axis</text></g><defs><clipPath id="_clipPath_OdgdpUjzuNJpcLmqXsdt41AFEEazLCEl"><rect x="0" y="0" width="37.905" height="17.5" transform="matrix(1,0,0,1,34.428,155)"/></clipPath></defs><g clip-path="url(#_clipPath_QmdIVQsxFLfSp4jc7eED8fvqCydJEp5B)"><text transform="matrix(1,0,0,1,705.736,123.724)" style="font-family:'Open Sans';font-weight:700;font-size:12px;font-style:normal;fill:#000000;stroke:none;">**</text></g><defs><clipPath id="_clipPath_QmdIVQsxFLfSp4jc7eED8fvqCydJEp5B"><rect x="0" y="0" width="17.45" height="16.342" transform="matrix(1,0,0,1,704.55,110.898)"/></clipPath></defs><path d=" M 672 27 C 697.5 28.5 719.75 63.875 713 106" fill="none" vector-effect="non-scaling-stroke" stroke-width="1" stroke="rgb(0,0,0)" stroke-linejoin="miter" stroke-linecap="square" stroke-miterlimit="3"/><line x1="712.8" y1="107" x2="712" y2="101" vector-effect="non-scaling-stroke" stroke-width="1" stroke="rgb(0,0,0)" stroke-linejoin="miter" stroke-linecap="square" stroke-miterlimit="3"/><line x1="713" y1="107" x2="716" y2="102" vector-effect="non-scaling-stroke" stroke-width="1" stroke="rgb(0,0,0)" stroke-linejoin="miter" stroke-linecap="square" stroke-miterlimit="3"/><line x1="702" y1="152.451" x2="702" y2="84.5" vector-effect="non-scaling-stroke" stroke-width="1" stroke="rgb(0,0,0)" stroke-linejoin="miter" stroke-linecap="square" stroke-miterlimit="3"/></g></svg>