<?xml version="1.0" encoding="UTF-8" standalone="no"?><!-- Generator: Gravit.io --><svg xmlns="http://www.w3.org/2000/svg" xmlns:xlink="http://www.w3.org/1999/xlink" style="isolation:isolate" viewBox="0 0 256 256" width="256pt" height="256pt"><defs><clipPath id="_clipPath_xpXH7sr9eDKuXU8tpZM1aVpDyTjZZacw"><rect width="256" height="256"/></clipPath></defs><g clip-path="url(#_clipPath_xpXH7sr9eDKuXU8tpZM1aVpDyTjZZacw)"><g><path d=" M 116.99 6.203 C 116.99 7.441 115.889 8.818 114.65 9.23 C 113.274 9.781 109.834 11.708 106.944 13.497 L 101.851 16.937 L 94.833 13.91 C 80.933 8.267 67.583 11.57 58.087 23.13 C 53.132 29.048 52.995 29.599 52.995 40.471 C 52.995 49.692 53.545 52.444 56.16 56.573 C 58.913 61.115 59.188 63.179 59.188 81.345 C 59.188 103.778 61.94 104.879 69.097 104.879 C 74.327 104.879 74.051 110.109 73.776 120.431 C 73.638 130.34 70.611 131.853 68.271 123.183 C 66.757 117.885 70.869 103.795 69.097 104.879 C 67.947 105.583 64.048 100.393 62.648 104.879 C 61.891 107.305 60.429 121.801 60.839 123.734 C 61.94 128.55 63.317 134.468 68.271 138.047 C 72.4 140.937 74.327 143.276 74.327 145.478 C 74.327 149.745 81.758 165.021 86.025 169.7 C 88.915 172.728 90.153 173.141 92.218 172.04 C 95.934 170.113 95.658 168.599 91.117 162.544 C 83.41 152.497 82.584 148.919 82.584 125.936 C 82.584 114.375 82.171 103.778 81.758 102.677 C 81.208 101.439 78.593 100.062 75.565 99.649 C 72.537 99.099 69.647 97.998 69.097 97.172 C 68.546 96.346 67.858 86.85 67.445 76.253 C 66.895 59.188 66.344 56.298 64.005 53.683 C 59.738 49.004 60.014 33.727 64.418 28.223 C 71.436 19.415 81.483 17.213 92.906 22.029 C 101.851 25.883 104.466 25.47 113.687 19.277 C 125.385 11.432 132.679 11.845 145.341 21.479 C 150.57 25.47 155.25 25.608 162.681 22.029 C 172.177 17.488 180.985 18.726 188.967 26.021 C 193.371 30.012 195.986 38.407 194.885 44.6 C 194.472 46.939 192.546 51.894 190.619 55.747 C 187.316 62.078 187.041 64.005 187.316 79.419 C 187.316 88.64 187.041 96.759 186.49 97.585 C 185.94 98.686 171.627 99.099 142.588 99.099 C 97.31 99.099 93.869 99.512 98.686 104.879 C 100.75 107.219 104.053 107.356 143.276 107.356 C 182.362 107.356 185.802 107.494 186.903 109.696 C 188.142 112.448 188.004 121.945 186.49 126.486 C 185.114 130.89 182.499 129.239 181.949 123.734 C 181.261 116.99 179.334 115.614 176.031 119.605 C 173.966 122.22 173.416 124.972 173.416 134.881 C 173.416 143.827 172.728 148.506 170.663 153.048 C 167.085 161.167 158.277 171.076 150.983 175.067 C 143.276 179.334 130.89 182.224 124.284 181.261 C 121.394 180.71 116.44 180.022 113.274 179.471 C 106.118 178.37 103.228 180.297 103.228 186.077 C 103.228 194.61 92.218 203.969 77.767 207.96 C 56.848 213.602 47.215 222.685 45.288 238.512 C 44.049 248.696 44.875 251.862 48.866 251.862 C 52.444 251.862 53.683 248.834 53.683 239.476 C 53.683 234.246 54.509 232.319 58.913 227.365 C 63.041 222.685 66.207 220.759 75.703 217.318 C 82.171 214.978 88.64 212.776 90.153 212.364 C 98.824 209.749 107.632 200.666 111.623 190.344 C 112.586 187.729 113.412 187.178 115.339 188.004 C 119.743 189.931 131.165 190.206 139.148 188.555 C 160.066 184.151 178.095 165.984 181.261 146.304 C 181.811 143.139 183.463 140.937 187.316 138.322 C 190.344 136.395 193.509 133.092 194.335 131.028 C 195.298 128.688 196.262 113.962 196.674 92.768 C 197.5 61.115 197.775 57.812 200.115 55.197 C 203.969 50.931 204.106 32.764 200.253 26.846 C 190.619 12.258 173.966 7.166 159.654 14.322 C 153.736 17.213 153.185 17.213 147.818 13.084 C 145.341 11.157 142.726 9.643 141.9 9.643 C 141.074 9.643 139.698 8.405 138.735 6.891 C 137.221 4.551 135.432 4.138 127.037 4.138 C 118.917 4.138 116.99 4.551 116.99 6.203 Z " fill="rgb(0,0,0)"/><path d=" M 113.274 117.953 C 110.659 118.917 110.935 131.578 113.549 132.679 C 118.642 134.606 121.945 123.596 117.541 119.192 C 116.44 117.953 115.339 116.99 115.201 117.128 C 115.063 117.128 114.1 117.541 113.274 117.953 Z " fill="rgb(0,0,0)"/><path d=" M 138.459 119.054 C 133.918 123.596 137.221 134.606 142.588 132.542 C 144.102 131.991 144.515 130.064 144.24 124.835 C 143.827 117.403 142.038 115.614 138.459 119.054 Z " fill="rgb(0,0,0)"/><path d=" M 148.231 192.27 C 147.68 192.821 147.543 195.161 148.093 197.638 C 149.056 202.592 147.405 204.657 137.496 211.951 C 130.477 217.043 126.073 217.18 119.33 212.501 C 110.384 206.446 104.604 211.4 112.724 218.281 L 116.852 221.722 L 112.173 227.915 C 107.769 233.558 107.356 235.072 107.356 243.054 L 107.356 251.862 L 111.485 251.862 C 115.614 251.862 115.614 251.724 115.614 244.292 C 115.614 236.448 119.467 228.466 123.183 228.466 C 126.349 228.466 142.038 219.245 148.919 213.327 C 155.8 207.409 155.938 207.409 160.204 209.473 C 165.021 211.813 171.489 214.428 184.151 218.832 C 195.573 222.961 202.317 230.668 202.317 239.613 C 202.317 248.834 203.556 251.862 207.134 251.862 C 211.125 251.862 211.951 248.696 210.712 238.512 C 208.785 222.685 198.876 213.327 178.233 207.96 C 170.113 205.895 158.828 199.565 155.8 195.436 C 152.772 191.445 150.157 190.344 148.231 192.27 Z " fill="rgb(0,0,0)"/><path d=" M 136.808 235.897 C 135.294 239.888 136.946 244.292 140.111 244.705 C 143.689 245.256 145.203 242.366 143.964 237.411 C 143.001 233.558 138.047 232.594 136.808 235.897 Z " fill="rgb(0,0,0)"/><path d=" M 163.369 236.035 C 160.892 238.375 161.718 243.054 164.883 244.292 C 168.186 245.531 169.838 242.779 169.425 236.31 C 169.287 233.42 166.122 233.282 163.369 236.035 Z " fill="rgb(0,0,0)"/></g></g></svg>