<?xml version="1.0" encoding="UTF-8" standalone="no"?><!-- Generator: Gravit.io --><svg xmlns="http://www.w3.org/2000/svg" xmlns:xlink="http://www.w3.org/1999/xlink" style="isolation:isolate" viewBox="0 0 250 250" width="250pt" height="250pt"><defs><clipPath id="_clipPath_AqpVkSDjEm4aBpl0dyJjKFAfURBMKUYa"><rect width="250" height="250"/></clipPath></defs><g clip-path="url(#_clipPath_AqpVkSDjEm4aBpl0dyJjKFAfURBMKUYa)"><mask id="_mask_QbPMPGdOnY7eoMHkAJthAZ9iFejRWxbR"><path d=" M 7.498 58.054 C 9.31 41.431 18.172 32.591 34.052 31.5 L 203.333 31.5 C 217.188 31.65 225.682 40.512 228.781 58.054" fill="white" stroke="none"/></mask><path d=" M 7.498 58.054 C 9.31 41.431 18.172 32.591 34.052 31.5 L 203.333 31.5 C 217.188 31.65 225.682 40.512 228.781 58.054" fill="none"/><path d=" M 7.498 58.054 C 9.31 41.431 18.172 32.591 34.052 31.5 L 203.333 31.5 C 217.188 31.65 225.682 40.512 228.781 58.054" fill="none" mask="url(#_mask_QbPMPGdOnY7eoMHkAJthAZ9iFejRWxbR)" vector-effect="non-scaling-stroke" stroke-width="3" stroke="rgb(0,0,0)" stroke-linejoin="miter" stroke-linecap="square" stroke-miterlimit="3"/><mask id="_mask_cmT9Kvrh3yZ1l4wYGb4PrOqtj7gS4YtS"><path d=" M 7.498 82.395 L 7.498 199.675 C 11.924 212.583 20.786 218.864 34.052 218.484 L 203.333 218.484 C 219.929 217.377 228.423 211.119 228.781 199.675 L 228.781 82.395" fill="white" stroke="none"/></mask><path d=" M 7.498 82.395 L 7.498 199.675 C 11.924 212.583 20.786 218.864 34.052 218.484 L 203.333 218.484 C 219.929 217.377 228.423 211.119 228.781 199.675 L 228.781 82.395" fill="none"/><path d=" M 7.498 82.395 L 7.498 199.675 C 11.924 212.583 20.786 218.864 34.052 218.484 L 203.333 218.484 C 219.929 217.377 228.423 211.119 228.781 199.675 L 228.781 82.395" fill="none" mask="url(#_mask_cmT9Kvrh3yZ1l4wYGb4PrOqtj7gS4YtS)" vector-effect="non-scaling-stroke" stroke-width="3" stroke="rgb(0,0,0)" stroke-linejoin="miter" stroke-linecap="square" stroke-miterlimit="3"/><mask id="_mask_kMFHQnwO6zADnnbTFgevnOcOSQbP7xoF"><path d=" M 38.478 95.672 C 93.43 142.879 146.18 142.89 196.695 95.672" fill="white" stroke="none"/></mask><path d=" M 38.478 95.672 C 93.43 142.879 146.18 142.89 196.695 95.672" fill="none"/><path d=" M 38.478 95.672 C 93.43 142.879 146.18 142.89 196.695 95.672" fill="none" mask="url(#_mask_kMFHQnwO6zADnnbTFgevnOcOSQbP7xoF)" vector-effect="non-scaling-stroke" stroke-width="3" stroke="rgb(0,0,0)" stroke-linejoin="miter" stroke-linecap="square" stroke-miterlimit="3"/><path d=" M 140.844 194.136 C 144.997 186.794 148.372 179.163 153 172.011 C 159.3 161.511 160.016 185.363 159.75 187.761 C 158.706 197.155 147.293 204.465 150.75 195.823 C 152.697 190.955 156.263 190.779 159.938 191.698 C 164.858 192.928 157.716 191.498 163.875 188.698 C 164.221 188.541 164.626 188.443 165 188.511 C 165.359 188.576 165.653 188.845 165.938 189.073 C 166.875 189.823 175.313 185.698 175.313 185.698 C 181.087 184.81 174.886 190.889 179.063 187.011 C 181.1 185.119 185.685 183.636 188.438 183.636 C 200.411 183.636 211.704 182.543 221.813 179.511 C 226.984 177.959 230.598 177.64 234 177.073" fill="none" vector-effect="non-scaling-stroke" stroke-width="1" stroke="rgb(0,0,0)" stroke-linejoin="miter" stroke-linecap="square" stroke-miterlimit="3"/></g></svg>