<?xml version="1.0" encoding="UTF-8" standalone="no"?><!-- Generator: Gravit.io --><svg xmlns="http://www.w3.org/2000/svg" xmlns:xlink="http://www.w3.org/1999/xlink" style="isolation:isolate" viewBox="0 0 256 256" width="256pt" height="256pt"><defs><clipPath id="_clipPath_VStweGZeKHfHVLaGl1H07ZcglBQIUAJj"><rect width="256" height="256"/></clipPath></defs><g clip-path="url(#_clipPath_VStweGZeKHfHVLaGl1H07ZcglBQIUAJj)"><g><path d=" M 114.566 27.102 C 104.373 28.095 91.022 32.064 83.896 36.304 C 83.174 36.755 81.64 37.476 80.468 38.018 C 76.769 39.641 67.478 46.136 61.705 51.278 C 56.382 55.879 54.127 56.69 54.127 53.894 C 54.127 52.36 49.527 51.368 48.083 52.631 C 47.271 53.263 46.911 58.946 46.73 73.108 L 46.46 92.593 L 44.204 92.593 L 41.949 92.593 L 41.679 73.108 C 41.408 52.09 41.228 51.278 36.717 52.18 L 34.282 52.631 L 34.282 71.845 C 34.282 92.142 34.011 93.675 30.042 92.864 C 28.508 92.593 28.418 90.969 28.148 73.018 C 27.877 52.09 27.696 51.278 23.276 52.18 L 20.751 52.631 L 20.57 72.116 C 20.299 89.436 20.119 91.601 18.766 92.503 C 17.593 93.224 16.691 93.224 15.609 92.503 C 14.165 91.601 13.985 89.436 13.714 72.116 L 13.534 52.631 L 11.098 52.18 C 6.227 51.278 6.317 50.647 6.317 78.701 C 6.317 103.057 6.408 105.132 8.122 108.379 C 10.106 112.348 14.526 116.047 18.315 116.949 C 21.653 117.851 22.013 119.926 20.841 133.186 C 20.299 139.41 19.848 147.8 19.848 151.949 C 19.848 156.009 19.217 165.661 18.495 173.328 C 17.864 180.996 17.142 193.625 16.962 201.383 C 16.691 217.44 17.413 219.605 23.908 222.942 C 29.05 225.558 33.289 225.288 37.709 222.04 C 43.934 217.53 44.565 215.455 43.844 201.293 C 43.573 194.617 43.032 186.95 42.671 184.334 L 42.13 179.553 L 44.295 180.545 C 45.467 181.086 48.083 183.792 49.978 186.499 C 53.135 190.829 62.426 200.3 67.207 203.999 C 74.334 209.501 92.826 219.334 96.074 219.334 C 96.885 219.334 98.329 219.785 99.231 220.236 C 102.659 222.04 117.002 224.115 127.195 224.205 C 141.177 224.295 148.845 222.852 165.262 216.989 C 171.577 214.733 181.77 208.69 189.438 202.646 C 192.415 200.3 200.624 192.001 205.405 186.589 C 209.735 181.718 211.539 181.086 210.727 184.785 C 210.456 186.228 210.005 194.617 209.644 203.548 L 209.103 219.785 L 211.9 223.664 C 213.523 225.829 215.418 227.453 216.41 227.453 C 217.402 227.453 218.485 227.814 218.755 228.355 C 219.026 228.806 220.92 229.257 222.815 229.257 C 224.709 229.257 226.603 228.806 226.874 228.355 C 227.145 227.814 228.227 227.453 229.219 227.453 C 230.212 227.453 232.106 225.919 233.64 223.664 C 236.256 220.146 236.346 219.605 236.346 210.404 C 236.346 205.172 235.805 192.091 234.993 181.447 C 234.271 170.803 233.279 153.934 232.647 143.921 C 232.106 133.998 231.655 125.067 231.565 124.075 C 231.475 122.903 232.467 121.82 235.083 120.467 C 242.841 116.588 246.178 112.619 248.524 104.32 C 252.493 90.789 245.818 65.892 235.353 55.067 C 232.286 51.819 226.243 48.842 222.815 48.842 C 218.936 48.842 212.621 52.721 209.103 57.232 C 207.57 59.306 205.946 61.381 205.495 61.922 C 205.044 62.373 202.698 60.569 199.541 57.322 C 195.121 52.631 184.206 43.791 178.162 40.092 C 174.193 37.657 163.549 32.605 162.286 32.605 C 161.564 32.605 160.211 31.974 159.309 31.252 C 158.317 30.53 156.512 29.899 155.249 29.899 C 153.987 29.899 151.28 29.267 149.296 28.636 C 144.966 27.102 124.128 26.2 114.566 27.102 Z  M 141.177 34.499 C 147.582 35.402 153.626 37.025 160.121 39.551 C 165.984 41.806 175.095 46.497 176.087 47.67 C 176.629 48.301 177.44 48.842 177.982 48.842 C 180.237 48.842 196.294 63.636 199.812 68.959 C 201.255 71.304 201.345 71.665 199.992 74.371 C 196.925 80.776 195.211 100.441 197.466 104.59 C 198.008 105.583 198.459 107.297 198.459 108.199 C 198.459 110.544 205.405 117.671 210.005 120.016 C 211.99 121.008 213.884 122.181 214.155 122.632 C 214.335 122.993 213.884 132.284 212.982 143.109 C 211.449 162.503 211.358 163.045 208.472 168.367 C 197.376 188.483 178.343 204.901 158.136 211.757 C 146.409 215.726 140.456 216.718 127.736 216.718 C 115.107 216.718 106.447 215.455 99.411 212.478 C 97.787 211.757 95.983 211.215 95.442 211.215 C 94.45 211.215 83.535 205.983 79.836 203.728 C 74.875 200.751 65.042 192.994 62.246 189.836 C 58.818 186.228 50.88 175.944 48.985 172.877 C 48.354 171.885 46.46 168.187 44.655 164.759 C 41.679 158.625 41.498 157.723 40.145 141.756 C 39.423 132.555 38.792 123.805 38.792 122.181 C 38.792 118.843 40.777 116.498 43.573 116.498 C 44.746 116.498 46.911 115.325 48.444 113.972 C 53.766 109.011 54.127 107.567 54.398 87.18 L 54.578 68.598 L 63.148 60.209 C 71.898 51.729 76.769 48.031 83.896 44.512 C 86.151 43.34 88.586 42.077 89.308 41.716 C 94.179 38.92 105.726 35.672 115.017 34.409 C 119.527 33.778 123.587 33.146 124.038 32.966 C 125.12 32.605 132.788 33.237 141.177 34.499 Z  M 229.941 60.028 C 236.075 66.433 240.134 76.175 241.668 88.894 C 243.111 100.17 241.037 107.748 235.263 111.987 C 232.557 113.972 231.475 114.152 222.634 114.152 C 211.99 114.152 211.449 113.972 206.487 107.116 C 204.052 103.779 203.871 103.057 203.871 94.938 C 203.961 89.796 204.503 84.835 205.224 82.67 C 205.946 80.686 206.577 78.34 206.577 77.528 C 206.577 76.265 208.021 72.928 210.366 68.688 C 210.727 67.966 211.449 66.433 211.9 65.441 C 212.351 64.358 214.245 62.013 216.139 60.209 C 218.846 57.502 220.108 56.961 223.266 56.961 C 226.333 56.961 227.505 57.502 229.941 60.028 Z  M 46.911 102.786 C 46.911 105.673 44.204 108.65 40.325 110.093 C 35.815 111.807 22.915 111.356 19.037 109.281 C 15.609 107.567 12.902 102.967 14.075 101.072 C 14.346 100.621 21.833 100.261 30.764 100.261 L 46.911 100.261 L 46.911 102.786 Z  M 32.568 125.519 C 32.928 128.766 33.199 136.073 33.289 141.756 C 33.38 147.439 33.831 156.009 34.282 160.699 C 34.733 165.39 35.545 178.741 36.086 190.287 C 37.258 215.365 37.078 215.996 30.493 216.447 C 26.343 216.718 26.163 216.628 24.629 213.561 C 23.006 210.133 23.276 203.548 26.614 156.64 C 27.426 146.176 27.967 133.818 27.967 129.037 C 27.967 120.106 28.238 118.933 30.673 119.384 C 31.666 119.565 32.207 121.279 32.568 125.519 Z  M 224.619 126.06 C 225.16 127.323 225.521 132.284 225.521 137.065 C 225.521 141.846 226.062 154.565 226.874 165.21 C 229.851 208.419 230.031 215.004 228.317 217.981 C 226.243 221.679 222.724 222.762 219.657 220.777 C 215.147 217.801 215.147 221.228 218.755 166.112 C 219.477 154.926 220.289 141.215 220.469 135.712 C 220.74 130.119 221.101 125.158 221.462 124.616 C 222.454 123.083 223.717 123.624 224.619 126.06 Z " fill="rgb(0,0,0)"/><path d=" M 115.919 59.577 C 112.942 60.028 109.514 60.75 108.252 61.291 C 106.989 61.742 103.741 63.095 101.035 64.178 C 91.293 68.147 82.994 74.551 74.063 85.286 C 70.274 89.887 64.23 102.967 62.787 109.552 C 60.081 122.361 60.081 123.985 62.877 141.756 C 63.148 143.47 63.96 145.725 64.591 146.717 C 65.313 147.71 65.854 149.333 65.854 150.416 C 65.854 151.498 66.486 152.851 67.207 153.483 C 67.929 154.114 68.56 155.106 68.56 155.648 C 68.56 157.362 76.138 168.096 80.558 172.516 C 84.798 176.846 95.081 184.153 96.885 184.153 C 97.517 184.153 98.419 184.604 99.05 185.236 C 101.215 187.401 112.581 190.558 122.685 191.821 C 127.285 192.362 136.306 191.55 144.876 189.746 C 149.566 188.754 162.737 182.349 166.886 179.102 C 175.907 171.885 187.634 157.181 187.634 153.032 C 187.634 152.31 187.995 151.588 188.446 151.318 C 190.43 150.055 194.309 131.202 194.039 124.165 C 193.407 110.454 190.16 99.809 183.214 88.985 C 178.072 80.956 171.757 74.642 163.729 69.5 C 157.685 65.621 154.889 64.268 146.409 61.111 C 141.899 59.487 123.857 58.585 115.919 59.577 Z  M 137.118 66.884 C 147.131 68.868 150.108 69.861 157.414 74.01 C 167.518 79.783 178.794 93.044 182.943 103.869 C 183.665 105.583 184.928 110.905 185.83 115.596 C 187.183 122.361 187.363 125.428 186.732 130.029 C 184.206 147.71 178.794 158.083 165.804 170.171 C 162.286 173.419 159.038 176.035 158.497 176.035 C 157.956 176.035 156.873 176.576 156.152 177.297 C 155.34 178.019 150.92 179.913 146.229 181.447 C 138.742 183.973 136.577 184.334 127.646 184.334 C 117.453 184.334 111.048 182.981 102.839 179.282 C 91.112 173.87 78.664 161.872 74.334 151.679 C 74.063 150.957 73.251 149.063 72.62 147.619 C 69.372 139.952 68.47 135.441 68.47 125.609 C 68.47 109.913 73.341 97.013 83.264 86.278 C 93.187 75.454 103.29 69.59 116.37 66.974 C 119.076 66.433 122.143 65.801 123.136 65.621 C 126.473 64.989 128.548 65.17 137.118 66.884 Z " fill="rgb(0,0,0)"/></g></g></svg>