<?xml version="1.0" encoding="UTF-8" standalone="no"?><!-- Generator: Gravit.io --><svg xmlns="http://www.w3.org/2000/svg" xmlns:xlink="http://www.w3.org/1999/xlink" style="isolation:isolate" viewBox="0 0 250 250" width="250pt" height="250pt"><defs><clipPath id="_clipPath_806Td3dHcQxnYikoeNiz3KIORUYhG434"><rect width="250" height="250"/></clipPath></defs><g clip-path="url(#_clipPath_806Td3dHcQxnYikoeNiz3KIORUYhG434)"><g><path d=" M 172.568 12.843 C 162.989 18.032 152.611 33.199 152.212 41.98 C 152.212 51.559 158.598 47.169 162.989 34.796 C 166.182 27.212 172.169 21.225 179.752 18.032 C 192.126 13.642 196.516 7.256 187.336 7.256 C 184.542 7.655 177.757 10.049 172.568 12.843 Z " fill="none" vector-effect="non-scaling-stroke" stroke-width="0.8" stroke="rgb(0,0,0)" stroke-linejoin="miter" stroke-linecap="butt" stroke-miterlimit="4"/><path d=" M 200.108 11.247 C 200.108 13.243 202.104 15.238 204.1 15.238 C 206.494 15.238 208.091 13.243 208.091 11.247 C 208.091 8.852 206.494 7.256 204.1 7.256 C 202.104 7.256 200.108 8.852 200.108 11.247 Z " fill="none" vector-effect="non-scaling-stroke" stroke-width="0.8" stroke="rgb(0,0,0)" stroke-linejoin="miter" stroke-linecap="butt" stroke-miterlimit="4"/><path d=" M 53.626 17.234 C 38.858 23.62 33.27 37.989 40.455 50.761 C 45.244 60.34 56.021 61.538 64.004 53.954 C 69.592 49.165 69.592 50.761 62.008 69.121 C 60.012 73.911 63.605 75.108 80.368 75.108 C 95.535 75.108 100.724 73.911 99.127 69.92 C 91.544 51.559 91.145 49.165 96.733 53.954 C 109.904 66.726 127.466 52.358 122.277 32.401 C 117.887 14.041 80.368 5.659 53.626 17.234 Z  M 104.715 27.212 C 108.707 29.607 112.299 35.195 112.299 39.186 C 112.299 45.572 109.505 47.169 99.926 47.169 C 91.145 47.169 87.153 49.165 85.557 55.152 C 84.36 59.542 81.965 63.134 80.368 63.134 C 78.772 63.134 76.377 59.542 75.179 55.152 C 73.583 49.165 69.592 47.169 60.811 47.169 C 51.231 47.169 48.437 45.572 48.437 39.186 C 48.437 35.195 51.631 29.607 55.622 27.611 C 64.403 22.024 94.737 22.024 104.715 27.212 Z " fill="none" vector-effect="non-scaling-stroke" stroke-width="0.8" stroke="rgb(0,0,0)" stroke-linejoin="miter" stroke-linecap="butt" stroke-miterlimit="4"/><path d=" M 20.498 69.121 C 20.498 71.117 40.455 91.074 42.45 91.074 C 47.24 91.074 43.648 82.293 36.463 75.108 C 29.279 67.924 20.498 64.332 20.498 69.121 Z " fill="none" vector-effect="non-scaling-stroke" stroke-width="0.8" stroke="rgb(0,0,0)" stroke-linejoin="miter" stroke-linecap="butt" stroke-miterlimit="4"/><path d=" M 121.08 84.288 C 111.9 93.868 109.505 103.048 115.891 103.048 C 117.887 103.048 120.681 99.455 122.277 95.464 C 123.475 91.074 128.264 86.284 132.655 85.087 C 136.646 83.49 140.238 80.696 140.238 78.7 C 140.238 71.915 129.861 75.108 121.08 84.288 Z " fill="none" vector-effect="non-scaling-stroke" stroke-width="0.8" stroke="rgb(0,0,0)" stroke-linejoin="miter" stroke-linecap="butt" stroke-miterlimit="4"/><path d=" M 154.208 89.078 C 148.221 94.666 144.23 103.447 144.23 110.232 C 144.23 117.816 139.839 125.798 130.26 134.978 C 113.496 150.944 112.299 165.712 125.47 178.085 C 141.436 193.252 151.813 189.66 182.946 157.729 C 209.687 130.987 213.679 123.803 212.481 105.842 C 211.683 93.069 193.722 79.1 178.156 79.1 C 168.178 79.1 160.594 82.293 154.208 89.078 Z  M 165.783 100.653 C 164.585 106.64 166.182 112.228 170.173 116.618 C 178.555 124.601 183.744 124.601 192.924 116.219 C 199.709 110.232 200.108 110.232 200.108 119.811 C 200.108 131.785 157.002 174.892 145.427 174.892 C 125.869 174.892 123.075 156.132 140.238 138.171 C 147.024 131.386 152.212 121.807 152.212 117.416 C 152.212 109.434 162.191 91.074 166.581 91.074 C 167.379 91.074 167.379 95.464 165.783 100.653 Z  M 186.937 108.636 C 185.34 112.228 182.546 115.022 180.152 115.022 C 173.366 115.022 170.572 102.649 176.559 98.657 C 183.744 94.267 190.13 100.653 186.937 108.636 Z " fill="none" vector-effect="non-scaling-stroke" stroke-width="0.8" stroke="rgb(0,0,0)" stroke-linejoin="miter" stroke-linecap="butt" stroke-miterlimit="4"/><path d=" M 43.648 105.842 C 30.077 112.627 20.897 132.184 21.696 152.54 C 22.893 173.295 30.876 178.484 50.034 169.304 L 64.802 162.519 L 73.184 172.896 L 81.566 183.274 L 93.14 172.098 L 104.715 160.922 L 94.338 152.141 C 83.96 142.961 83.96 142.961 90.746 128.592 C 100.325 108.636 95.136 101.052 71.986 100.653 C 62.407 100.653 49.635 103.048 43.648 105.842 Z  M 82.364 120.61 C 76.776 138.571 75.579 150.145 79.969 152.54 C 82.364 154.137 84.36 158.128 84.36 161.321 C 84.36 166.51 82.364 166.111 73.982 159.325 C 63.605 151.343 57.618 151.742 41.652 162.119 C 32.472 167.707 32.472 167.707 32.472 149.347 C 32.472 124.601 45.644 111.429 69.192 111.829 C 83.561 111.829 84.759 112.627 82.364 120.61 Z " fill="none" vector-effect="non-scaling-stroke" stroke-width="0.8" stroke="rgb(0,0,0)" stroke-linejoin="miter" stroke-linecap="butt" stroke-miterlimit="4"/><path d=" M 176.16 186.866 C 176.16 188.861 178.156 190.857 180.152 190.857 C 182.546 190.857 184.143 188.861 184.143 186.866 C 184.143 184.471 182.546 182.874 180.152 182.874 C 178.156 182.874 176.16 184.471 176.16 186.866 Z " fill="none" vector-effect="non-scaling-stroke" stroke-width="0.8" stroke="rgb(0,0,0)" stroke-linejoin="miter" stroke-linecap="butt" stroke-miterlimit="4"/><path d=" M 20.498 214.805 C 20.498 221.59 24.09 230.371 28.481 234.762 C 35.665 241.946 41.652 242.744 104.316 242.744 C 166.98 242.744 172.967 241.946 180.152 234.762 C 184.542 230.371 188.134 222.788 188.134 218.397 C 188.134 210.415 189.332 210.015 209.288 212.809 C 242.416 217.998 250 217.599 250 210.814 C 250 205.625 234.035 204.827 135.449 203.629 L 20.498 202.831 L 20.498 214.805 Z  M 174.963 216.402 C 176.16 217.599 176.16 221.191 174.564 224.783 C 172.568 229.972 162.989 230.77 103.518 229.972 C 42.45 228.775 34.468 227.976 33.27 221.989 C 32.472 217.2 35.266 215.204 45.244 214.007 C 65.201 212.011 172.967 214.007 174.963 216.402 Z " fill="none" vector-effect="non-scaling-stroke" stroke-width="0.8" stroke="rgb(0,0,0)" stroke-linejoin="miter" stroke-linecap="butt" stroke-miterlimit="4"/></g></g></svg>