<?xml version="1.0" encoding="UTF-8" standalone="no"?><!-- Generator: Gravit.io --><svg xmlns="http://www.w3.org/2000/svg" xmlns:xlink="http://www.w3.org/1999/xlink" style="isolation:isolate" viewBox="0 0 192 34" width="192pt" height="34pt"><defs><clipPath id="_clipPath_Oek5hAeadXwyY2wAjxTQkHvB7dW9MsB4"><rect width="192" height="34"/></clipPath></defs><g clip-path="url(#_clipPath_Oek5hAeadXwyY2wAjxTQkHvB7dW9MsB4)"><g><g opacity="0.9"><path d=" M 167 8 L 157 11 L 164 12 L 191 4 L 176 12 L 178 10 L 174 10 L 161 14 L 103 19 L 144 14 L 167 8 Z  M 163 6 L 180 2 L 171 7 L 172 5 L 163 6 Z " fill="rgb(55,43,33)"/></g><path d=" M 167 8 L 144 14 L 103 19 L 161 14 L 174 10 L 178 10 L 176 12 L 170 14 L 165 15 L 163 15 L 151 17 L 150 17 L 143 18 L 126 21 L 145 22 L 145 23 L 124 23 L 119 22 L 112 20 L 94 22 L 68 29 L 45 29 L 70 27 L 71 24 L 66 24 L 49 27 L 84 19 L 84 19 L 96 16 L 97 16 L 136 12 L 147 10 L 156 8 L 160 7 L 163 6 L 172 5 L 171 7 L 167 8 Z " fill="rgb(69,91,42)"/><g opacity="0.9"><path d=" M 165 20 L 173 24 L 145 23 L 145 22 L 148 22 L 167 22 L 165 20 Z " fill="rgb(55,43,33)"/></g><path d=" M 165 20 L 167 22 L 148 22 L 162 20 L 164 20 L 165 20 Z " fill="rgb(69,91,42)"/><g opacity="0.9"><path d=" M 161 19 L 164 20 L 162 20 L 161 20 L 161 19 Z " fill="rgb(55,43,33)"/></g><path d=" M 161 20 L 162 20 L 148 22 L 145 22 L 126 21 L 130 21 L 140 20 L 146 20 L 161 20 Z " fill="rgb(151,162,113)"/><path d=" M 146 19 L 161 19 L 161 20 L 146 20 L 146 19 Z  M 142 3 L 153 0 L 145 5 L 141 5 L 142 3 Z " fill="rgb(69,91,42)"/><g opacity="0.9"><path d=" M 143 18 L 146 19 L 146 20 L 140 20 L 130 21 L 126 21 L 143 18 Z  M 142 3 L 141 5 L 145 5 L 135 9 L 137 8 L 135 6 L 142 3 Z  M 124 23 L 145 23 L 137 24 L 134 24 L 112 25 L 121 27 L 104 26 L 96 28 L 101 30 L 68 29 L 94 22 L 112 20 L 119 22 L 116 22 L 107 23 L 104 23 L 100 24 L 104 24 L 112 24 L 121 23 L 124 23 Z  M 137 29 L 139 31 L 122 30 L 137 29 Z " fill="rgb(55,43,33)"/></g><path d=" M 135 6 L 137 8 L 135 9 L 135 6 Z  M 136 29 L 137 29 L 122 30 L 110 30 L 103 30 L 101 30 L 96 28 L 104 26 L 121 27 L 122 27 L 131 28 L 132 28 L 136 29 Z " fill="rgb(69,91,42)"/><g opacity="0.9"><path d=" M 130 11 L 136 12 L 97 16 L 135 6 L 135 9 L 130 11 Z " fill="rgb(55,43,33)"/></g><path d=" M 130 11 L 121 13 L 130 8 L 133 9 L 130 11 Z " fill="rgb(69,91,42)"/><g opacity="0.9"><path d=" M 119 6 L 128 4 L 119 7 L 119 6 Z " fill="rgb(55,43,33)"/></g><path d=" M 119 22 L 124 23 L 121 23 L 116 22 L 119 22 Z " fill="rgb(151,162,113)"/><path d=" M 116 22 L 121 23 L 112 24 L 107 23 L 116 22 Z  M 115 6 L 119 6 L 119 7 L 113 8 L 110 9 L 103 10 L 104 8 L 105 8 L 108 7 L 110 7 L 113 6 L 115 6 Z " fill="rgb(69,91,42)"/><path d=" M 107 23 L 112 24 L 104 24 L 104 23 L 107 23 Z " fill="rgb(151,162,113)"/><g opacity="0.9"><path d=" M 104 8 L 103 10 L 110 9 L 92 15 L 96 16 L 84 19 L 49 27 L 66 24 L 71 24 L 70 27 L 45 29 L 68 29 L 36 32 L 0 31 L 0 28 L 2 25 L 11 26 L 4 26 L 3 30 L 10 31 L 25 31 L 32 30 L 40 30 L 39 27 L 31 26 L 61 20 L 61 20 L 65 19 L 67 20 L 69 20 L 71 20 L 69 18 L 72 17 L 72 19 L 75 19 L 73 17 L 76 16 L 79 17 L 82 17 L 85 16 L 86 16 L 89 15 L 91 13 L 94 12 L 97 12 L 101 11 L 100 9 L 104 8 Z " fill="rgb(55,43,33)"/></g><path d=" M 104 24 L 100 24 L 104 23 L 104 24 Z  M 97 10 L 96 10 L 96 11 L 97 12 L 101 11 L 100 9 L 97 10 Z " fill-rule="evenodd" fill="rgb(69,91,42)"/><path d=" M 96 11 L 97 12 L 94 12 L 96 11 Z " fill="rgb(151,162,113)"/><g opacity="0.9"><path d=" M 91 12 L 96 10 L 96 11 L 94 12 L 91 12 Z  M 96 20 L 80 24 L 77 22 L 96 20 Z " fill="rgb(55,43,33)"/></g><path d=" M 91 12 L 94 12 L 91 13 L 91 12 Z  M 78 16 L 91 13 L 89 15 L 86 16 L 85 16 L 82 17 L 79 17 L 78 16 Z " fill="rgb(151,162,113)"/><path d=" M 78 16 L 79 17 L 76 16 L 78 16 Z  M 73 17 L 75 19 L 72 19 L 72 17 L 73 17 Z  M 69 18 L 71 20 L 69 20 L 69 19 L 69 18 Z " fill="rgb(69,91,42)"/><g opacity="0.9"><path d=" M 65 19 L 69 18 L 69 19 L 66 19 L 65 19 Z " fill="rgb(55,43,33)"/></g><path d=" M 66 19 L 69 19 L 69 20 L 67 20 L 66 19 Z " fill="rgb(151,162,113)"/><path d=" M 66 19 L 67 20 L 65 19 L 66 19 Z  M 61 20 L 63 22 L 60 22 L 61 20 Z " fill="rgb(69,91,42)"/><path d=" M 39 27 L 40 30 L 32 30 L 25 31 L 10 31 L 3 30 L 4 26 L 11 26 L 13 27 L 27 27 L 39 27 Z " fill="rgb(151,162,113)"/><path d=" M 31 26 L 39 27 L 27 27 L 27 26 L 31 26 Z " fill="rgb(69,91,42)"/><g opacity="0.9"><path d=" M 13 27 L 27 26 L 27 27 L 13 27 Z " fill="rgb(55,43,33)"/></g></g></g></svg>